<svg width="32" height="32" viewBox="0 0 32 32" fill="none" xmlns="http://www.w3.org/2000/svg">
  <!-- Yellow Circle Background -->
  <circle cx="16" cy="16" r="16" fill="#FCD34D"/>
  
  <!-- Simplified Brain Lightbulb -->
  <g transform="translate(16, 16)">
    <!-- Bulb base -->
    <rect x="-2" y="7" width="4" height="2" fill="#1F2937" rx="0.5"/>
    
    <!-- Left brain hemisphere -->
    <path d="M -6 -2 Q -7 -5 -6 -7 Q -5 -8 -3 -8 Q -1 -8 0 -6 L 0 2 Q -1 4 -3 5 Q -4 5 -5 4 Q -5 3 -4 2 Q -3 1 -3 0 Q -3 -1 -4 -2 Q -5 -3 -6 -2 Z" 
          fill="none" stroke="#1F2937" stroke-width="1.2" stroke-linecap="round"/>
    
    <!-- Right brain hemisphere -->
    <path d="M 6 -2 Q 7 -5 6 -7 Q 5 -8 3 -8 Q 1 -8 0 -6 L 0 2 Q 1 4 3 5 Q 4 5 5 4 Q 5 3 4 2 Q 3 1 3 0 Q 3 -1 4 -2 Q 5 -3 6 -2 Z" 
          fill="none" stroke="#1F2937" stroke-width="1.2" stroke-linecap="round"/>
    
    <!-- Center line -->
    <line x1="0" y1="-7" x2="0" y2="2" stroke="#1F2937" stroke-width="1"/>
    
    <!-- Light rays (simplified) -->
    <line x1="0" y1="-10" x2="0" y2="-12" stroke="#1F2937" stroke-width="1.5" stroke-linecap="round"/>
    <line x1="-4" y1="-9" x2="-6" y2="-11" stroke="#1F2937" stroke-width="1.5" stroke-linecap="round"/>
    <line x1="4" y1="-9" x2="6" y2="-11" stroke="#1F2937" stroke-width="1.5" stroke-linecap="round"/>
    <line x1="-7" y1="-5" x2="-9" y2="-6" stroke="#1F2937" stroke-width="1.5" stroke-linecap="round"/>
    <line x1="7" y1="-5" x2="9" y2="-6" stroke="#1F2937" stroke-width="1.5" stroke-linecap="round"/>
  </g>
</svg>
