<svg width="200" height="200" viewBox="0 0 200 200" fill="none" xmlns="http://www.w3.org/2000/svg">
  <!-- Yellow Circle Background -->
  <circle cx="100" cy="100" r="90" fill="#FCD34D"/>
  
  <!-- Brain/Lightbulb Icon -->
  <g transform="translate(100, 100)">
    <!-- Lightbulb Base -->
    <path d="M -8 35 L -8 42 L 8 42 L 8 35 Z" fill="#1F2937" stroke="#1F2937" stroke-width="2"/>
    <path d="M -6 42 L -6 48 L 6 48 L 6 42 Z" fill="#1F2937"/>
    
    <!-- Lightbulb Body (Brain Shape) -->
    <!-- Left hemisphere -->
    <path d="M -25 -10 Q -30 -20 -25 -30 Q -20 -35 -10 -35 Q -5 -35 -2 -32 Q 0 -30 0 -25 L 0 10 Q -5 20 -12 25 Q -18 28 -20 20 Q -22 15 -20 10 Q -18 5 -15 0 Q -12 -5 -15 -10 Q -18 -15 -20 -12 Q -22 -8 -25 -10 Z" 
          fill="none" stroke="#1F2937" stroke-width="2.5" stroke-linecap="round"/>
    
    <!-- Right hemisphere -->
    <path d="M 25 -10 Q 30 -20 25 -30 Q 20 -35 10 -35 Q 5 -35 2 -32 Q 0 -30 0 -25 L 0 10 Q 5 20 12 25 Q 18 28 20 20 Q 22 15 20 10 Q 18 5 15 0 Q 12 -5 15 -10 Q 18 -15 20 -12 Q 22 -8 25 -10 Z" 
          fill="none" stroke="#1F2937" stroke-width="2.5" stroke-linecap="round"/>
    
    <!-- Brain details - left side -->
    <path d="M -15 -25 Q -18 -20 -15 -15" fill="none" stroke="#1F2937" stroke-width="2" stroke-linecap="round"/>
    <path d="M -12 -15 Q -15 -10 -12 -5" fill="none" stroke="#1F2937" stroke-width="2" stroke-linecap="round"/>
    <path d="M -10 -5 Q -13 0 -10 5" fill="none" stroke="#1F2937" stroke-width="2" stroke-linecap="round"/>
    <path d="M -8 10 Q -11 15 -8 20" fill="none" stroke="#1F2937" stroke-width="2" stroke-linecap="round"/>
    
    <!-- Brain details - right side -->
    <path d="M 15 -25 Q 18 -20 15 -15" fill="none" stroke="#1F2937" stroke-width="2" stroke-linecap="round"/>
    <path d="M 12 -15 Q 15 -10 12 -5" fill="none" stroke="#1F2937" stroke-width="2" stroke-linecap="round"/>
    <path d="M 10 -5 Q 13 0 10 5" fill="none" stroke="#1F2937" stroke-width="2" stroke-linecap="round"/>
    <path d="M 8 10 Q 11 15 8 20" fill="none" stroke="#1F2937" stroke-width="2" stroke-linecap="round"/>
    
    <!-- Center connection -->
    <path d="M 0 -30 L 0 10" fill="none" stroke="#1F2937" stroke-width="2"/>
  </g>
  
  <!-- Light rays -->
  <g transform="translate(100, 100)">
    <!-- Top rays -->
    <line x1="0" y1="-55" x2="0" y2="-70" stroke="#1F2937" stroke-width="3" stroke-linecap="round" stroke-dasharray="2,4"/>
    <line x1="-15" y1="-52" x2="-22" y2="-65" stroke="#1F2937" stroke-width="3" stroke-linecap="round" stroke-dasharray="2,4"/>
    <line x1="15" y1="-52" x2="22" y2="-65" stroke="#1F2937" stroke-width="3" stroke-linecap="round" stroke-dasharray="2,4"/>
    
    <!-- Side rays -->
    <line x1="-35" y1="-35" x2="-48" y2="-48" stroke="#1F2937" stroke-width="3" stroke-linecap="round" stroke-dasharray="2,4"/>
    <line x1="35" y1="-35" x2="48" y2="-48" stroke="#1F2937" stroke-width="3" stroke-linecap="round" stroke-dasharray="2,4"/>
    
    <line x1="-45" y1="-15" x2="-60" y2="-18" stroke="#1F2937" stroke-width="3" stroke-linecap="round" stroke-dasharray="2,4"/>
    <line x1="45" y1="-15" x2="60" y2="-18" stroke="#1F2937" stroke-width="3" stroke-linecap="round" stroke-dasharray="2,4"/>
    
    <!-- Lower side rays -->
    <line x1="-42" y1="5" x2="-55" y2="8" stroke="#1F2937" stroke-width="3" stroke-linecap="round" stroke-dasharray="2,4"/>
    <line x1="42" y1="5" x2="55" y2="8" stroke="#1F2937" stroke-width="3" stroke-linecap="round" stroke-dasharray="2,4"/>
  </g>
</svg>
